<svg viewBox="0 0 512 512" xmlns="http://www.w3.org/2000/svg"><path d="M229.837 418.163a8 8 0 0 1 0 11.314l-25.55 25.55a39.99 39.99 0 0 1-52.7 3.4L49.761 492.986a24.205 24.205 0 0 1-7.784 1.294 24.031 24.031 0 0 1-22.562-32l35.413-100.329a39.982 39.982 0 0 1 2.145-54.238l25.549-25.55a8 8 0 0 1 11.315 0Zm249.19-294.45-90.74-90.74a40 40 0 0 0-56.574 0l-25.37 25.37a8 8 0 0 0 0 11.314l136 136a8 8 0 0 0 11.314 0l25.37-25.37a40 40 0 0 0 0-56.574Zm-193.37-33.37a8 8 0 0 0-11.314 0l-160 160a8 8 0 0 0 0 11.314l136 136a8 8 0 0 0 11.314 0l160-160a8 8 0 0 0 0-11.314Z" fill="#ffd900" class="fill-3b3b3b"></path></svg>